<svg width="320" height="132" viewBox="0 0 320 132" fill="none" xmlns="http://www.w3.org/2000/svg">
<path d="M262.584 34.3515L268.729 45.3116L271.802 50.7916L258.318 49.5984L248.731 95.846L287.207 34.3515H300.554L291.663 80.3457L301.018 95.846H287.545L281.21 84.6748L278.042 79.0892L291.663 80.3457L300.554 34.3515L262.246 95.846H248.731L258.318 49.5984L249.196 34.3515H262.584Z" fill="white"/>
<path d="M225.713 44.5302V80.8947H214.563V35.1962H225.122L225.713 44.5302ZM239.608 34.9006L239.439 45.2905C238.82 45.1778 238.116 45.0934 237.327 45.037C236.567 44.9807 235.849 44.9526 235.173 44.9526C233.456 44.9526 231.95 45.1919 230.654 45.6706C229.359 46.1211 228.275 46.7828 227.402 47.6556C226.557 48.5285 225.91 49.5984 225.459 50.8655C225.009 52.1044 224.755 53.5122 224.699 55.089L222.292 54.7934C222.292 51.8932 222.587 49.2042 223.179 46.7264C223.77 44.2486 224.629 42.0806 225.755 40.2222C226.881 38.3639 228.289 36.9279 229.979 35.9142C231.696 34.8724 233.667 34.3515 235.891 34.3515C236.511 34.3515 237.173 34.4078 237.877 34.5205C238.609 34.6049 239.186 34.7316 239.608 34.9006Z" fill="white"/>
<path d="M188.546 81.7394C185.083 81.7394 181.971 81.1763 179.212 80.05C176.452 78.9238 174.101 77.3611 172.159 75.3619C170.244 73.3346 168.766 70.9835 167.724 68.3086C166.71 65.6056 166.203 62.7054 166.203 59.6082V57.9188C166.203 54.3992 166.71 51.2034 167.724 48.3314C168.737 45.4312 170.173 42.9394 172.032 40.8558C173.89 38.7721 176.115 37.1672 178.705 36.0409C181.295 34.9147 184.153 34.3515 187.279 34.3515C190.517 34.3515 193.375 34.9006 195.853 35.9987C198.33 37.0687 200.4 38.5891 202.061 40.5601C203.722 42.5311 204.975 44.8963 205.82 47.6556C206.665 50.3868 207.087 53.4137 207.087 56.7362V61.4243H171.272V53.7375H196.106V52.8928C196.05 51.1189 195.712 49.4999 195.092 48.0357C194.473 46.5434 193.515 45.3608 192.22 44.488C190.925 43.587 189.25 43.1365 187.194 43.1365C185.533 43.1365 184.083 43.5025 182.844 44.2346C181.633 44.9385 180.62 45.9521 179.803 47.2755C179.015 48.5707 178.423 50.1193 178.029 51.9214C177.635 53.7234 177.438 55.7225 177.438 57.9188V59.6082C177.438 61.5229 177.691 63.2967 178.198 64.9298C178.733 66.5629 179.507 67.9848 180.521 69.1956C181.563 70.3782 182.802 71.3073 184.238 71.9831C185.702 72.6307 187.363 72.9545 189.222 72.9545C191.559 72.9545 193.67 72.504 195.557 71.603C197.472 70.6738 199.133 69.3082 200.541 67.5062L206.158 73.3346C205.201 74.7425 203.905 76.094 202.272 77.3892C200.667 78.6844 198.725 79.7403 196.444 80.5569C194.163 81.3452 191.53 81.7394 188.546 81.7394Z" fill="white"/>
<path d="M130.515 42.6296V97.1131H119.322V33.8447H129.67L130.515 42.6296ZM159.868 56.2294V57.1163C159.868 60.4388 159.474 63.522 158.686 66.3658C157.925 69.1815 156.799 71.6452 155.307 73.757C153.814 75.8406 151.956 77.4737 149.732 78.6563C147.535 79.8107 145.001 80.3879 142.129 80.3879C139.314 80.3879 136.864 79.8529 134.78 78.783C132.697 77.6849 130.937 76.1362 129.501 74.1371C128.065 72.138 126.911 69.815 126.038 67.1683C125.193 64.4934 124.559 61.5792 124.137 58.4256V55.5958C124.559 52.2452 125.193 49.2042 126.038 46.473C126.911 43.7137 128.065 41.3344 129.501 39.3353C130.937 37.308 132.683 35.7453 134.738 34.6472C136.822 33.5491 139.257 33 142.045 33C144.945 33 147.493 33.5491 149.689 34.6472C151.914 35.7453 153.786 37.3221 155.307 39.3775C156.827 41.433 157.968 43.8826 158.728 46.7264C159.488 49.5703 159.868 52.7379 159.868 56.2294ZM148.676 57.1163V56.2294C148.676 54.2021 148.493 52.3297 148.127 50.6121C147.761 48.8664 147.198 47.3459 146.437 46.0507C145.677 44.7273 144.692 43.6996 143.481 42.9675C142.27 42.2354 140.806 41.8694 139.088 41.8694C137.371 41.8694 135.893 42.151 134.654 42.7141C133.415 43.2772 132.401 44.0797 131.613 45.1215C130.824 46.1633 130.205 47.4022 129.754 48.8382C129.332 50.246 129.05 51.8088 128.91 53.5263V60.5374C129.163 62.621 129.656 64.4934 130.388 66.1546C131.12 67.8159 132.19 69.1393 133.598 70.1248C135.034 71.1102 136.892 71.603 139.173 71.603C140.89 71.603 142.355 71.2229 143.565 70.4626C144.776 69.7024 145.762 68.6606 146.522 67.3372C147.282 65.9857 147.831 64.4371 148.169 62.6914C148.507 60.9456 148.676 59.0873 148.676 57.1163Z" fill="white"/>
<path d="M89.7576 74.475L102.006 33.8447H113.958L95.6283 86.4698C95.206 87.5961 94.6569 88.8209 93.9812 90.1442C93.3335 91.4676 92.4607 92.7206 91.3626 93.9032C90.2645 95.1139 88.8848 96.0994 87.2235 96.8596C85.5904 97.6199 83.6054 98 81.2684 98C80.2547 98 79.3537 97.9296 78.5653 97.7888C77.7769 97.648 76.9463 97.465 76.0734 97.2398V88.8772C76.355 88.9053 76.6788 88.9194 77.0448 88.9194C77.439 88.9476 77.7769 88.9617 78.0585 88.9617C79.6916 88.9617 81.0431 88.7646 82.1131 88.3704C83.183 88.0043 84.0418 87.399 84.6894 86.5543C85.3652 85.7377 85.9283 84.6677 86.3788 83.3444L89.7576 74.475ZM83.718 33.8447L94.0656 67.5062L95.8817 79.2898L88.1949 80.6836L71.681 33.8447H83.718Z" fill="white"/>
<path d="M52.4639 34.3515V95.846H18V34.3515H52.4639ZM61.3333 34.3515V95.846H58.5458V34.3515H61.3333Z" fill="white"/>
</svg>
